HIERARCHY
ROOT joint_Root
{
  OFFSET 0 0 0
  CHANNELS 6 Xposition Yposition Zposition Zrotation Xrotation Yrotation
  JOINT Hips
  {
    OFFSET 0.847027 93.984 -452.225
    CHANNELS 6 Xposition Yposition Zposition Zrotation Xrotation Yrotation
    JOINT Spine
    {
      OFFSET 15.7357 0 0
      CHANNELS 6 Xposition Yposition Zposition Zrotation Xrotation Yrotation
      JOINT Chest
      {
        OFFSET 8.98455 -0.406207 0
        CHANNELS 6 Xposition Yposition Zposition Zrotation Xrotation Yrotation
        JOINT Neck
        {
          OFFSET 16.3773 0 0
          CHANNELS 6 Xposition Yposition Zposition Zrotation Xrotation Yrotation
          JOINT Head
          {
            OFFSET 6.45672 0 0
            CHANNELS 6 Xposition Yposition Zposition Zrotation Xrotation Yrotation
            End Site
            {
              OFFSET 0 0 0
            }
          }
        }
        JOINT Shoulder_L
        {
          OFFSET 12.9942 -0.242716 4.98039
          CHANNELS 6 Xposition Yposition Zposition Zrotation Xrotation Yrotation
          JOINT UpperArm_L
          {
            OFFSET 5.34809 0 0
            CHANNELS 6 Xposition Yposition Zposition Zrotation Xrotation Yrotation
            JOINT LowerArm_L
            {
              OFFSET 24.3286 1.87007e-05 0
              CHANNELS 6 Xposition Yposition Zposition Zrotation Xrotation Yrotation
              JOINT Hand_L
              {
                OFFSET 22.2916 0 0
                CHANNELS 6 Xposition Yposition Zposition Zrotation Xrotation Yrotation
                End Site
                {
                  OFFSET 0 0 0
                }
              }
            }
          }
        }
        JOINT Shoulder_R
        {
          OFFSET 12.9945 -0.242716 -4.98039
          CHANNELS 6 Xposition Yposition Zposition Zrotation Xrotation Yrotation
          JOINT UpperArm_R
          {
            OFFSET -5.34813 0 0
            CHANNELS 6 Xposition Yposition Zposition Zrotation Xrotation Yrotation
            JOINT LowerArm_R
            {
              OFFSET -24.3289 0.000322201 0
              CHANNELS 6 Xposition Yposition Zposition Zrotation Xrotation Yrotation
              JOINT Hand_R
              {
                OFFSET -22.2915 -0.000108084 0
                CHANNELS 6 Xposition Yposition Zposition Zrotation Xrotation Yrotation
                End Site
                {
                  OFFSET 0 0 0
                }
              }
            }
          }
        }
      }
    }
    JOINT UpperLeg_L
    {
      OFFSET -2.19248 -6.46944 0
      CHANNELS 6 Xposition Yposition Zposition Zrotation Xrotation Yrotation
      JOINT LowerLeg_L
      {
        OFFSET 39.0811 0 -1.23785e-05
        CHANNELS 6 Xposition Yposition Zposition Zrotation Xrotation Yrotation
        JOINT Foot_L
        {
          OFFSET 40.9854 0 -1.26872e-05
          CHANNELS 6 Xposition Yposition Zposition Zrotation Xrotation Yrotation
          JOINT Toes_L
          {
            OFFSET 11.7543 0 0
            CHANNELS 6 Xposition Yposition Zposition Zrotation Xrotation Yrotation
            End Site
            {
              OFFSET 0 0 0
            }
          }
        }
      }
    }
    JOINT UpperLeg_R
    {
      OFFSET -2.19251 6.46944 0
      CHANNELS 6 Xposition Yposition Zposition Zrotation Xrotation Yrotation
      JOINT LowerLeg_R
      {
        OFFSET -39.0811 -0.00228153 -0.0401928
        CHANNELS 6 Xposition Yposition Zposition Zrotation Xrotation Yrotation
        JOINT Foot_R
        {
          OFFSET -40.9854 0 0
          CHANNELS 6 Xposition Yposition Zposition Zrotation Xrotation Yrotation
          JOINT Toes_R
          {
            OFFSET -11.7543 0 0
            CHANNELS 6 Xposition Yposition Zposition Zrotation Xrotation Yrotation
            End Site
            {
              OFFSET 0 0 0
            }
          }
        }
      }
    }
  }
}
MOTION
Frames:	8
Frame Time:	0.0333333
0 0 0 0 0 -0 -223.936 88.7548 -53.3093 84.0111 47.1048 6.93267 15.7357 5.1072e-06 -5.51764e-07 75.9556 80.2641 -77.6711 8.98455 -0.406207 -4.3199e-07 11.082 -4.73894 -2.97072 16.3773 -1.3905e-06 -6.99897e-07 12.2762 -18.2942 5.76663 6.45672 -1.25837e-06 -1.02172e-07 -8.23512 -28.3649 13.0255 12.9942 -0.242716 4.98039 -91.0305 2.59746 -83.353 5.34809 -7.22636e-06 -6.2814e-07 -61.6784 9.29959 -3.88364 24.3286 1.87007e-05 4.90208e-06 0.734325 2.46884 -16.6246 22.2916 -9.88446e-07 4.63217e-06 14.8404 5.48394 -5.88531 12.9945 -0.242716 -4.98039 87.3762 8.79704 -88.3199 -5.34813 -1.25947e-06 -3.79883e-06 -64.5456 16.9628 7.51418 -24.3289 0.000322201 -8.65921e-06 24.7367 13.1221 -63.7702 -22.2915 -0.000108084 -4.47941e-06 5.85988 5.33211 -0.846194 -2.19248 -6.46944 -1.22533e-07 -175.256 -20.2851 -7.94215 39.0811 -6.73843e-06 -1.23785e-05 0.0677327 -0.0560226 40.9357 40.9854 -6.48686e-06 -1.26872e-05 -0.355905 -5.10534 -78.2398 11.7543 -2.30145e-07 3.05095e-06 0.0409838 -0.064534 -17.7264 -2.19251 6.46944 -1.45247e-06 171.046 8.34948 156.879 -39.0811 -0.00228153 -0.0401928 0.252951 -0.160801 56.1263 -40.9854 7.72618e-06 5.99936e-06 -8.20349 -6.06073 -55.778 -11.7543 -5.6619e-06 -5.58687e-06 0.26136 -0.306105 -19.5338 
0 0 0 0 0 -0 -220.742 89.6508 -52.9936 82.944 48.2343 6.29872 15.7357 5.1072e-06 -5.51765e-07 70.9007 80.7626 -71.9279 8.98455 -0.406207 -4.3199e-07 9.67763 -6.0261 -1.54372 16.3773 -1.3905e-06 -6.99897e-07 12.492 -18.537 5.85555 6.45672 -1.25837e-06 -1.02172e-07 -9.50643 -27.7247 11.8706 12.9942 -0.242716 4.98039 -90.7539 1.94808 -83.8414 5.34809 -7.22636e-06 -6.2814e-07 -60.6461 10.4686 -4.78605 24.3286 1.87007e-05 4.90208e-06 -0.506524 -1.30434 -21.1363 22.2916 -9.88446e-07 4.63217e-06 16.8493 5.52301 -7.48033 12.9945 -0.242716 -4.98039 87.1656 8.70091 -86.8776 -5.34813 -1.25947e-06 -3.79883e-06 -65.9689 17.439 11.704 -24.3289 0.000322201 -8.65921e-06 23.9496 13.9456 -61.5167 -22.2915 -0.000108084 -4.47941e-06 4.84673 5.32486 -0.636351 -2.19248 -6.46944 -1.22534e-07 -175.805 -19.1366 -5.54443 39.0811 -6.73843e-06 -1.23785e-05 0.0430384 -0.0330092 36.4084 40.9854 -6.48686e-06 -1.26872e-05 0.0153923 -4.79816 -76.4393 11.7543 -2.30145e-07 3.05095e-06 0.0840058 -0.135545 -18.9742 -2.19251 6.46944 -1.45247e-06 176.209 11.5998 153.276 -39.0811 -0.00228153 -0.0401928 0.162079 -0.120495 51.6668 -40.9854 7.72618e-06 5.99936e-06 -9.21302 -5.80271 -57.2023 -11.7543 -5.6619e-06 -5.58687e-06 0.246192 -0.287458 -19.3572 
0 0 0 0 0 -0 -217.628 90.2511 -52.6655 82.3055 49.7493 5.448 15.7357 5.1072e-06 -5.51765e-07 66.4037 81.0675 -66.7912 8.98455 -0.406207 -4.3199e-07 8.63073 -7.11924 -0.237091 16.3773 -1.3905e-06 -6.99897e-07 12.3885 -19.1499 6.08735 6.45672 -1.25837e-06 -1.02172e-07 -10.6969 -27.8255 11.0132 12.9942 -0.242716 4.98039 -90.4257 1.13798 -84.494 5.34809 -7.22636e-06 -6.2814e-07 -59.571 11.1241 -6.55428 24.3286 1.87007e-05 4.90208e-06 -1.95821 -4.10414 -25.5205 22.2916 -9.88446e-07 4.63217e-06 17.79 5.5441 -8.42998 12.9945 -0.242716 -4.98039 86.9786 8.52952 -85.4109 -5.34813 -1.25947e-06 -3.79883e-06 -66.9765 17.3602 15.4509 -24.3289 0.000322201 -8.65921e-06 21.2879 13.6794 -58.7446 -22.2915 -0.000108084 -4.47941e-06 4.30171 5.33795 -1.0198 -2.19248 -6.46944 -1.22533e-07 -176.597 -17.4894 -3.90118 39.0811 -6.73843e-06 -1.23785e-05 0.032212 -0.0196907 33.2491 40.9854 -6.48686e-06 -1.26872e-05 -0.0448293 -4.62749 -74.4249 11.7543 -2.30145e-07 3.05095e-06 0.140169 -0.233816 -20.674 -2.19251 6.46944 -1.45247e-06 -178.651 14.4472 150.321 -39.0811 -0.00228153 -0.0401928 0.0835636 -0.0768093 45.0222 -40.9854 7.72618e-06 5.99936e-06 -10.3008 -5.52389 -57.2934 -11.7543 -5.6619e-06 -5.58687e-06 0.257158 -0.300952 -19.4851 
0 0 0 0 0 -0 -214.443 90.4505 -52.2874 82.2861 51.82 4.62866 15.7357 5.1072e-06 -5.51764e-07 62.6952 81.1281 -62.5638 8.98455 -0.406207 -4.3199e-07 8.07067 -8.10404 0.835459 16.3773 -1.3905e-06 -6.99897e-07 12.1967 -20.1776 6.50215 6.45672 -1.25837e-06 -1.02172e-07 -11.9117 -28.6474 10.5114 12.9942 -0.242716 4.98039 -90.109 0.304697 -85.3239 5.34809 -7.22636e-06 -6.2814e-07 -58.2814 11.4323 -9.07615 24.3286 1.87007e-05 4.90208e-06 -2.82877 -5.01106 -29.4979 22.2916 -9.88446e-07 4.63217e-06 17.9099 5.55088 -8.74612 12.9945 -0.242716 -4.98039 86.7548 8.47831 -83.9643 -5.34813 -1.25947e-06 -3.79883e-06 -67.4949 16.855 18.6974 -24.3289 0.000322201 -8.65921e-06 19.5895 13.762 -56.2405 -22.2915 -0.000108084 -4.47941e-06 3.38252 5.34666 -1.27727 -2.19248 -6.46944 -1.22533e-07 -177.636 -15.4385 -2.36044 39.0811 -6.73843e-06 -1.23785e-05 0.0285816 -0.01176 31.3523 40.9854 -6.48686e-06 -1.26872e-05 -0.0516878 -4.45957 -72.7381 11.7543 -2.30145e-07 3.05095e-06 0.199998 -0.346672 -22.593 -2.19251 6.46944 -1.45247e-06 -174.115 16.919 148.408 -39.0811 -0.00228153 -0.0401928 0.0285014 -0.0329738 36.9566 -40.9854 7.72618e-06 5.99936e-06 -11.5572 -4.51269 -56.2114 -11.7543 -5.6619e-06 -5.58687e-06 0.263522 -0.308806 -19.5593 
0 0 0 0 0 -0 -210.966 90.192 -51.8043 82.7292 54.4871 4.08821 15.7357 5.1072e-06 -5.51765e-07 59.6469 80.9339 -59.0626 8.98455 -0.406207 -4.3199e-07 8.00395 -9.12267 1.80903 16.3773 -1.3905e-06 -6.99897e-07 11.6863 -21.363 6.83764 6.45672 -1.25837e-06 -1.02172e-07 -12.8738 -29.8282 10.3183 12.9942 -0.242716 4.98039 -89.8502 -0.435836 -86.0161 5.34809 -7.22636e-06 -6.2814e-07 -56.4417 12.4457 -12.4879 24.3286 1.87007e-05 4.90208e-06 -2.35599 -3.68964 -32.6061 22.2916 -9.88446e-07 4.63217e-06 18.6491 5.55848 -9.11218 12.9945 -0.242716 -4.98039 86.5889 8.32299 -82.6194 -5.34813 -1.25947e-06 -3.79883e-06 -67.7931 16.2527 21.0652 -24.3289 0.000322201 -8.65921e-06 19.6099 15.0782 -53.8677 -22.2915 -0.000108084 -4.47941e-06 2.40024 5.35457 -1.51456 -2.19248 -6.46944 -1.22533e-07 -178.625 -13.5415 -0.340924 39.0811 -6.73843e-06 -1.23785e-05 0.0294022 -0.00620468 30.4833 40.9854 -6.48686e-06 -1.26872e-05 0.13825 -3.76605 -71.8158 11.7543 -2.30145e-07 3.05095e-06 0.263971 -0.478592 -24.7964 -2.19251 6.46944 -1.45247e-06 -171.135 18.3545 147.84 -39.0811 -0.00228153 -0.0401928 0.00121203 0.00523667 29.0605 -40.9854 7.72618e-06 5.99936e-06 -14.7567 -1.66482 -54.9755 -11.7543 -5.6619e-06 -5.58687e-06 0.249707 -0.291761 -19.3981 
0 0 0 0 0 -0 -207.009 89.4364 -51.1565 83.505 57.69 4.03481 15.7357 5.1072e-06 -5.51765e-07 57.3468 80.4582 -56.3455 8.98455 -0.406207 -4.3199e-07 8.49382 -10.2424 2.76746 16.3773 -1.3905e-06 -6.99897e-07 11.3953 -22.3535 7.11785 6.45672 -1.25837e-06 -1.02172e-07 -14.0712 -31.3217 10.5424 12.9942 -0.242716 4.98039 -89.6027 -1.17764 -86.3542 5.34809 -7.22636e-06 -6.2814e-07 -54.3172 13.7143 -16.857 24.3286 1.87007e-05 4.90208e-06 -1.61984 -2.32224 -34.9119 22.2916 -9.88446e-07 4.63217e-06 19.4637 5.56266 -9.31897 12.9945 -0.242716 -4.98039 86.518 8.10395 -81.6529 -5.34813 -1.25947e-06 -3.79883e-06 -67.9515 15.4351 22.4745 -24.3289 0.000322201 -8.65921e-06 19.452 16.5563 -51.1049 -22.2915 -0.000108084 -4.47941e-06 1.23369 5.35106 -1.40771 -2.19248 -6.46944 -1.22533e-07 -179.205 -12.2028 2.44382 39.0811 -6.73843e-06 -1.23785e-05 0.0165826 -0.00113307 30.7797 40.9854 -6.48686e-06 -1.26872e-05 0.471488 -1.95924 -71.6508 11.7543 -2.30145e-07 3.05095e-06 0.328598 -0.626842 -27.2256 -2.19251 6.46944 -1.45247e-06 -170.161 19.4261 148.15 -39.0811 -0.00228153 -0.0401928 -0.00733702 0.0256401 24.104 -40.9854 7.72618e-06 5.99936e-06 -20.6533 1.94554 -53.1242 -11.7543 -5.6619e-06 -5.58687e-06 0.279277 -0.328303 -19.7436 
0 0 0 0 0 -0 -202.614 88.3244 -50.2937 84.1883 61.7488 4.25709 15.7357 5.1072e-06 -5.51765e-07 54.8788 79.9484 -53.3427 8.98455 -0.406207 -4.3199e-07 8.96863 -11.4909 3.98172 16.3773 -1.3905e-06 -6.99897e-07 10.9529 -23.478 7.26242 6.45672 -1.25837e-06 -1.02172e-07 -14.9868 -32.5768 10.4889 12.9942 -0.242716 4.98039 -89.4223 -1.73782 -86.6052 5.34809 -7.22636e-06 -6.2814e-07 -52.6993 14.5129 -21.3837 24.3286 1.87007e-05 4.90208e-06 -2.22301 -2.9729 -36.8039 22.2916 -9.88446e-07 4.63217e-06 19.6409 5.55477 -8.93223 12.9945 -0.242716 -4.98039 86.3295 8.09419 -80.506 -5.34813 -1.25947e-06 -3.79883e-06 -67.498 14.9433 23.0472 -24.3289 0.000322201 -8.65921e-06 19.0858 18.2238 -47.8945 -22.2915 -0.000108084 -4.47941e-06 -0.161314 5.34699 -1.28747 -2.19248 -6.46944 -1.22533e-07 -179.164 -10.869 4.89216 39.0811 -6.73843e-06 -1.23785e-05 0.0298099 0.00440701 32.7874 40.9854 -6.48686e-06 -1.26872e-05 0.892661 0.90171 -71.6577 11.7543 -2.30145e-07 3.05095e-06 0.404594 -0.827687 -30.4521 -2.19251 6.46944 -1.45247e-06 -170.295 20.5376 147.587 -39.0811 -0.00228153 -0.0401928 -0.0953339 0.213303 25.0732 -40.9854 7.72618e-06 5.99936e-06 -23.1579 6.02959 -53.61 -11.7543 -5.6619e-06 -5.58687e-06 0.274177 -0.321967 -19.6838 
0 0 0 0 0 -0 -198.066 87.2325 -49.3161 82.5007 66.346 5.57351 15.7357 5.1072e-06 -5.51765e-07 51.9846 79.9872 -49.574 8.98455 -0.406207 -4.3199e-07 8.4205 -12.2644 5.73739 16.3773 -1.3905e-06 -6.99897e-07 12.2604 -24.8105 8.03621 6.45672 -1.25837e-06 -1.02172e-07 -16.4118 -34.4132 10.3432 12.9942 -0.242716 4.98039 -89.2938 -2.19332 -87.1449 5.34809 -7.22636e-06 -6.2814e-07 -52.8415 14.1976 -25.1893 24.3286 1.87007e-05 4.90208e-06 -3.54433 -4.42848 -38.7282 22.2916 -9.88446e-07 4.63217e-06 19.2298 5.54215 -8.33688 12.9945 -0.242716 -4.98039 85.6582 9.06105 -79.2622 -5.34813 -1.25947e-06 -3.79883e-06 -66.1107 14.5805 23.5784 -24.3289 0.000322201 -8.65921e-06 17.6299 19.5316 -43.5495 -22.2915 -0.000108084 -4.47941e-06 -0.749704 5.35385 -1.49314 -2.19248 -6.46944 -1.22533e-07 -177.226 -10.6121 4.9048 39.0811 -6.73843e-06 -1.23785e-05 0.0422231 -0.00598929 37.242 40.9854 -6.48686e-06 -1.26872e-05 1.48297 5.56794 -70.185 11.7543 -2.30145e-07 3.05095e-06 0.510508 -1.19044 -36.1309 -2.19251 6.46944 -1.45247e-06 -168.621 19.4507 142.975 -39.0811 -0.00228153 -0.0401928 -0.126006 0.211768 34.2055 -40.9854 7.72618e-06 5.99936e-06 -0.935534 9.46578 -55.3743 -11.7543 -5.6619e-06 -5.58687e-06 0.146586 -0.167728 -18.2122 
